# 3ds Max Wavefront OBJ Exporter v0.97b - (c)2007 guruware
# File Created: 23.06.2018 15:44:11

#
# object Tube001
#

v  -38.0075 0.0000 -62.5169
v  -38.0075 8.5584 -52.8780
v  -16.5789 8.5584 -49.0995
v  -13.2822 0.0000 -58.1572
v  -38.0075 17.1167 -43.2391
v  -19.8756 17.1167 -40.0419
v  -38.0075 25.6751 -33.6001
v  -23.1723 25.6751 -30.9843
v  -38.0075 34.2334 -23.9612
v  -26.4690 34.2334 -21.9267
v  -38.0075 42.7918 -14.3223
v  -29.7657 42.7918 -12.8691
v  -38.0075 42.7918 -2.4581
v  -33.8235 42.7918 -1.7204
v  -38.0075 34.2334 -7.3514
v  -32.1499 34.2334 -6.3185
v  -38.0075 25.6751 -12.2446
v  -30.4763 25.6751 -10.9167
v  -38.0075 17.1167 -17.1379
v  -28.8027 17.1167 -15.5149
v  -38.0075 8.5584 -22.0312
v  -27.1291 8.5584 -20.1130
v  -38.0075 0.0000 -26.9244
v  -25.4556 0.0000 -24.7112
v  2.2651 8.5584 -38.2200
v  8.4609 0.0000 -45.6038
v  -3.9307 17.1167 -30.8361
v  -10.1265 25.6751 -23.4523
v  -16.3223 34.2334 -16.0684
v  -22.5180 42.7918 -8.6846
v  -30.1442 42.7918 0.4039
v  -26.9989 34.2334 -3.3446
v  -23.8535 25.6751 -7.0930
v  -20.7082 17.1167 -10.8415
v  -17.5629 8.5584 -14.5899
v  -14.4176 0.0000 -18.3384
v  16.2516 8.5584 -21.5515
v  24.5991 0.0000 -26.3709
v  7.9040 17.1167 -16.7320
v  -0.4435 25.6751 -11.9126
v  -8.7911 34.2334 -7.0931
v  -17.1386 42.7918 -2.2736
v  -27.4133 42.7918 3.6584
v  -23.1756 34.2334 1.2118
v  -18.9379 25.6751 -1.2348
v  -14.7002 17.1167 -3.6814
v  -10.4625 8.5584 -6.1281
v  -6.2249 0.0000 -8.5747
v  23.6937 8.5584 -1.1046
v  33.1861 0.0000 -2.7783
v  14.2012 17.1167 0.5692
v  4.7087 25.6751 2.2430
v  -4.7838 34.2334 3.9168
v  -14.2763 42.7918 5.5906
v  -25.9602 42.7918 7.6507
v  -21.1413 34.2334 6.8010
v  -16.3224 25.6751 5.9513
v  -11.5034 17.1167 5.1016
v  -6.6845 8.5584 4.2519
v  -1.8656 0.0000 3.4022
v  23.6937 8.5584 20.6546
v  33.1861 0.0000 22.3284
v  14.2012 17.1167 18.9808
v  4.7087 25.6751 17.3070
v  -4.7838 34.2334 15.6332
v  -14.2763 42.7918 13.9595
v  -25.9602 42.7918 11.8993
v  -21.1413 34.2334 12.7490
v  -16.3224 25.6751 13.5987
v  -11.5035 17.1167 14.4484
v  -6.6845 8.5584 15.2981
v  -1.8656 0.0000 16.1478
v  16.2516 8.5584 41.1015
v  24.5991 0.0000 45.9210
v  7.9040 17.1167 36.2821
v  -0.4435 25.6751 31.4626
v  -8.7911 34.2334 26.6431
v  -17.1386 42.7918 21.8237
v  -27.4133 42.7918 15.8916
v  -23.1756 34.2334 18.3382
v  -18.9379 25.6751 20.7848
v  -14.7002 17.1167 23.2315
v  -10.4625 8.5584 25.6781
v  -6.2249 0.0000 28.1247
v  2.2651 8.5584 57.7700
v  8.4608 0.0000 65.1538
v  -3.9307 17.1167 50.3862
v  -10.1265 25.6751 43.0023
v  -16.3223 34.2334 35.6185
v  -22.5181 42.7918 28.2346
v  -30.1442 42.7918 19.1461
v  -26.9989 34.2334 22.8946
v  -23.8535 25.6751 26.6430
v  -20.7082 17.1167 30.3915
v  -17.5629 8.5584 34.1400
v  -14.4176 0.0000 37.8884
v  -16.5789 8.5584 68.6496
v  -13.2822 0.0000 77.7072
v  -19.8756 17.1167 59.5919
v  -23.1723 25.6751 50.5343
v  -26.4690 34.2334 41.4767
v  -29.7657 42.7918 32.4191
v  -33.8235 42.7918 21.2704
v  -32.1499 34.2334 25.8686
v  -30.4763 25.6751 30.4667
v  -28.8027 17.1167 35.0649
v  -27.1292 8.5584 39.6630
v  -25.4556 0.0000 44.2612
v  -38.0075 8.5584 72.4280
v  -38.0075 0.0000 82.0669
v  -38.0075 17.1167 62.7891
v  -38.0075 25.6751 53.1502
v  -38.0075 34.2334 43.5112
v  -38.0075 42.7918 33.8723
v  -38.0075 42.7918 22.0082
v  -38.0075 34.2334 26.9014
v  -38.0075 25.6751 31.7947
v  -38.0075 17.1167 36.6879
v  -38.0075 8.5584 41.5812
v  -38.0075 0.0000 46.4744
v  -59.4361 8.5584 68.6496
v  -62.7328 0.0000 77.7072
v  -56.1394 17.1167 59.5919
v  -52.8427 25.6751 50.5343
v  -49.5460 34.2334 41.4767
v  -46.2493 42.7918 32.4191
v  -42.1915 42.7918 21.2704
v  -43.8651 34.2334 25.8686
v  -45.5387 25.6751 30.4667
v  -47.2123 17.1167 35.0649
v  -48.8859 8.5584 39.6630
v  -50.5595 0.0000 44.2612
v  -78.2801 8.5584 57.7700
v  -84.4759 0.0000 65.1538
v  -72.0843 17.1167 50.3861
v  -65.8885 25.6751 43.0023
v  -59.6927 34.2334 35.6185
v  -53.4970 42.7918 28.2346
v  -45.8708 42.7918 19.1461
v  -49.0161 34.2334 22.8946
v  -52.1615 25.6751 26.6430
v  -55.3068 17.1167 30.3915
v  -58.4521 8.5584 34.1399
v  -61.5974 0.0000 37.8884
v  -92.2666 8.5584 41.1015
v  -100.6142 0.0000 45.9210
v  -83.9190 17.1167 36.2820
v  -75.5715 25.6751 31.4626
v  -67.2239 34.2334 26.6431
v  -58.8764 42.7918 21.8237
v  -48.6017 42.7918 15.8916
v  -52.8394 34.2334 18.3382
v  -57.0771 25.6751 20.7848
v  -61.3148 17.1167 23.2315
v  -65.5525 8.5584 25.6781
v  -69.7901 0.0000 28.1247
v  -99.7087 8.5584 20.6546
v  -109.2011 0.0000 22.3284
v  -90.2162 17.1167 18.9808
v  -80.7237 25.6751 17.3070
v  -71.2312 34.2334 15.6332
v  -61.7387 42.7918 13.9595
v  -50.0548 42.7918 11.8993
v  -54.8737 34.2334 12.7490
v  -59.6926 25.6751 13.5987
v  -64.5116 17.1167 14.4484
v  -69.3305 8.5584 15.2981
v  -74.1494 0.0000 16.1478
v  -99.7087 8.5584 -1.1046
v  -109.2011 0.0000 -2.7784
v  -90.2162 17.1167 0.5692
v  -80.7237 25.6751 2.2430
v  -71.2312 34.2334 3.9168
v  -61.7387 42.7918 5.5906
v  -50.0548 42.7918 7.6507
v  -54.8737 34.2334 6.8010
v  -59.6926 25.6751 5.9513
v  -64.5116 17.1167 5.1016
v  -69.3305 8.5584 4.2519
v  -74.1494 0.0000 3.4022
v  -92.2666 8.5584 -21.5515
v  -100.6141 0.0000 -26.3710
v  -83.9190 17.1167 -16.7320
v  -75.5715 25.6751 -11.9126
v  -67.2239 34.2334 -7.0931
v  -58.8764 42.7918 -2.2736
v  -48.6017 42.7918 3.6584
v  -52.8394 34.2334 1.2118
v  -57.0771 25.6751 -1.2348
v  -61.3148 17.1167 -3.6814
v  -65.5525 8.5584 -6.1281
v  -69.7901 0.0000 -8.5747
v  -78.2801 8.5584 -38.2200
v  -84.4758 0.0000 -45.6038
v  -72.0843 17.1167 -30.8361
v  -65.8885 25.6751 -23.4523
v  -59.6927 34.2334 -16.0684
v  -53.4969 42.7918 -8.6846
v  -45.8708 42.7918 0.4039
v  -49.0161 34.2334 -3.3446
v  -52.1615 25.6751 -7.0930
v  -55.3068 17.1167 -10.8415
v  -58.4521 8.5584 -14.5899
v  -61.5974 0.0000 -18.3384
v  -59.4361 8.5584 -49.0996
v  -62.7328 0.0000 -58.1572
v  -56.1394 17.1167 -40.0419
v  -52.8427 25.6751 -30.9843
v  -49.5460 34.2334 -21.9267
v  -46.2493 42.7918 -12.8691
v  -42.1915 42.7918 -1.7204
v  -43.8651 34.2334 -6.3185
v  -45.5387 25.6751 -10.9167
v  -47.2123 17.1167 -15.5149
v  -48.8858 8.5584 -20.1130
v  -50.5594 0.0000 -24.7112
# 216 vertices

vn -0.0000 0.7478 -0.6639
vn 0.0000 0.7478 -0.6639
vn 0.2271 0.7478 -0.6239
vn 0.0000 1.0000 -0.0000
vn -0.0000 -0.4964 0.8681
vn 0.0000 -0.4964 0.8681
vn -0.2969 -0.4964 0.8158
vn 0.0000 -1.0000 -0.0000
vn 0.4268 0.7478 -0.5086
vn -0.5580 -0.4964 0.6650
vn 0.5750 0.7478 -0.3320
vn -0.7518 -0.4964 0.4341
vn 0.6539 0.7478 -0.1153
vn -0.8549 -0.4964 0.1507
vn 0.6539 0.7478 0.1153
vn -0.8549 -0.4964 -0.1507
vn 0.5750 0.7478 0.3320
vn -0.7518 -0.4964 -0.4341
vn 0.4268 0.7478 0.5086
vn -0.5580 -0.4964 -0.6650
vn 0.2271 0.7478 0.6239
vn -0.2969 -0.4964 -0.8158
vn -0.0000 0.7478 0.6639
vn 0.0000 -0.4964 -0.8681
vn -0.2271 0.7478 0.6239
vn 0.2969 -0.4964 -0.8158
vn -0.4268 0.7478 0.5086
vn 0.5580 -0.4964 -0.6650
vn -0.5750 0.7478 0.3320
vn 0.7518 -0.4964 -0.4341
vn -0.6539 0.7478 0.1153
vn 0.8549 -0.4964 -0.1507
vn -0.6539 0.7478 -0.1153
vn 0.8549 -0.4964 0.1507
vn -0.5750 0.7478 -0.3320
vn 0.7518 -0.4964 0.4341
vn -0.4268 0.7478 -0.5086
vn 0.5580 -0.4964 0.6650
vn -0.2271 0.7478 -0.6239
vn 0.2969 -0.4964 0.8158
# 40 vertex normals

g Tube001
f 1//1 2//2 3//3 
f 3//3 4//3 1//1 
f 2//2 5//2 6//3 
f 6//3 3//3 2//2 
f 5//2 7//2 8//3 
f 8//3 6//3 5//2 
f 7//2 9//2 10//3 
f 10//3 8//3 7//2 
f 9//2 11//2 12//3 
f 12//3 10//3 9//2 
f 11//4 13//4 14//4 
f 14//4 12//4 11//4 
f 13//5 15//6 16//7 
f 16//7 14//7 13//5 
f 15//6 17//5 18//7 
f 18//7 16//7 15//6 
f 17//5 19//5 20//7 
f 20//7 18//7 17//5 
f 19//5 21//5 22//7 
f 22//7 20//7 19//5 
f 21//5 23//5 24//7 
f 24//7 22//7 21//5 
f 23//8 1//8 4//8 
f 4//8 24//8 23//8 
f 4//3 3//3 25//9 
f 25//9 26//9 4//3 
f 3//3 6//3 27//9 
f 27//9 25//9 3//3 
f 6//3 8//3 28//9 
f 28//9 27//9 6//3 
f 8//3 10//3 29//9 
f 29//9 28//9 8//3 
f 10//3 12//3 30//9 
f 30//9 29//9 10//3 
f 12//4 14//4 31//4 
f 31//4 30//4 12//4 
f 14//7 16//7 32//10 
f 32//10 31//10 14//7 
f 16//7 18//7 33//10 
f 33//10 32//10 16//7 
f 18//7 20//7 34//10 
f 34//10 33//10 18//7 
f 20//7 22//7 35//10 
f 35//10 34//10 20//7 
f 22//7 24//7 36//10 
f 36//10 35//10 22//7 
f 24//8 4//8 26//8 
f 26//8 36//8 24//8 
f 26//9 25//9 37//11 
f 37//11 38//11 26//9 
f 25//9 27//9 39//11 
f 39//11 37//11 25//9 
f 27//9 28//9 40//11 
f 40//11 39//11 27//9 
f 28//9 29//9 41//11 
f 41//11 40//11 28//9 
f 29//9 30//9 42//11 
f 42//11 41//11 29//9 
f 30//4 31//4 43//4 
f 43//4 42//4 30//4 
f 31//10 32//10 44//12 
f 44//12 43//12 31//10 
f 32//10 33//10 45//12 
f 45//12 44//12 32//10 
f 33//10 34//10 46//12 
f 46//12 45//12 33//10 
f 34//10 35//10 47//12 
f 47//12 46//12 34//10 
f 35//10 36//10 48//12 
f 48//12 47//12 35//10 
f 36//8 26//8 38//8 
f 38//8 48//8 36//8 
f 38//11 37//11 49//13 
f 49//13 50//13 38//11 
f 37//11 39//11 51//13 
f 51//13 49//13 37//11 
f 39//11 40//11 52//13 
f 52//13 51//13 39//11 
f 40//11 41//11 53//13 
f 53//13 52//13 40//11 
f 41//11 42//11 54//13 
f 54//13 53//13 41//11 
f 42//4 43//4 55//4 
f 55//4 54//4 42//4 
f 43//12 44//12 56//14 
f 56//14 55//14 43//12 
f 44//12 45//12 57//14 
f 57//14 56//14 44//12 
f 45//12 46//12 58//14 
f 58//14 57//14 45//12 
f 46//12 47//12 59//14 
f 59//14 58//14 46//12 
f 47//12 48//12 60//14 
f 60//14 59//14 47//12 
f 48//8 38//8 50//8 
f 50//8 60//8 48//8 
f 50//13 49//13 61//15 
f 61//15 62//15 50//13 
f 49//13 51//13 63//15 
f 63//15 61//15 49//13 
f 51//13 52//13 64//15 
f 64//15 63//15 51//13 
f 52//13 53//13 65//15 
f 65//15 64//15 52//13 
f 53//13 54//13 66//15 
f 66//15 65//15 53//13 
f 54//4 55//4 67//4 
f 67//4 66//4 54//4 
f 55//14 56//14 68//16 
f 68//16 67//16 55//14 
f 56//14 57//14 69//16 
f 69//16 68//16 56//14 
f 57//14 58//14 70//16 
f 70//16 69//16 57//14 
f 58//14 59//14 71//16 
f 71//16 70//16 58//14 
f 59//14 60//14 72//16 
f 72//16 71//16 59//14 
f 60//8 50//8 62//8 
f 62//8 72//8 60//8 
f 62//15 61//15 73//17 
f 73//17 74//17 62//15 
f 61//15 63//15 75//17 
f 75//17 73//17 61//15 
f 63//15 64//15 76//17 
f 76//17 75//17 63//15 
f 64//15 65//15 77//17 
f 77//17 76//17 64//15 
f 65//15 66//15 78//17 
f 78//17 77//17 65//15 
f 66//4 67//4 79//4 
f 79//4 78//4 66//4 
f 67//16 68//16 80//18 
f 80//18 79//18 67//16 
f 68//16 69//16 81//18 
f 81//18 80//18 68//16 
f 69//16 70//16 82//18 
f 82//18 81//18 69//16 
f 70//16 71//16 83//18 
f 83//18 82//18 70//16 
f 71//16 72//16 84//18 
f 84//18 83//18 71//16 
f 72//8 62//8 74//8 
f 74//8 84//8 72//8 
f 74//17 73//17 85//19 
f 85//19 86//19 74//17 
f 73//17 75//17 87//19 
f 87//19 85//19 73//17 
f 75//17 76//17 88//19 
f 88//19 87//19 75//17 
f 76//17 77//17 89//19 
f 89//19 88//19 76//17 
f 77//17 78//17 90//19 
f 90//19 89//19 77//17 
f 78//4 79//4 91//4 
f 91//4 90//4 78//4 
f 79//18 80//18 92//20 
f 92//20 91//20 79//18 
f 80//18 81//18 93//20 
f 93//20 92//20 80//18 
f 81//18 82//18 94//20 
f 94//20 93//20 81//18 
f 82//18 83//18 95//20 
f 95//20 94//20 82//18 
f 83//18 84//18 96//20 
f 96//20 95//20 83//18 
f 84//8 74//8 86//8 
f 86//8 96//8 84//8 
f 86//19 85//19 97//21 
f 97//21 98//21 86//19 
f 85//19 87//19 99//21 
f 99//21 97//21 85//19 
f 87//19 88//19 100//21 
f 100//21 99//21 87//19 
f 88//19 89//19 101//21 
f 101//21 100//21 88//19 
f 89//19 90//19 102//21 
f 102//21 101//21 89//19 
f 90//4 91//4 103//4 
f 103//4 102//4 90//4 
f 91//20 92//20 104//22 
f 104//22 103//22 91//20 
f 92//20 93//20 105//22 
f 105//22 104//22 92//20 
f 93//20 94//20 106//22 
f 106//22 105//22 93//20 
f 94//20 95//20 107//22 
f 107//22 106//22 94//20 
f 95//20 96//20 108//22 
f 108//22 107//22 95//20 
f 96//8 86//8 98//8 
f 98//8 108//8 96//8 
f 98//21 97//21 109//23 
f 109//23 110//23 98//21 
f 97//21 99//21 111//23 
f 111//23 109//23 97//21 
f 99//21 100//21 112//23 
f 112//23 111//23 99//21 
f 100//21 101//21 113//23 
f 113//23 112//23 100//21 
f 101//21 102//21 114//23 
f 114//23 113//23 101//21 
f 102//4 103//4 115//4 
f 115//4 114//4 102//4 
f 103//22 104//22 116//24 
f 116//24 115//24 103//22 
f 104//22 105//22 117//24 
f 117//24 116//24 104//22 
f 105//22 106//22 118//24 
f 118//24 117//24 105//22 
f 106//22 107//22 119//24 
f 119//24 118//24 106//22 
f 107//22 108//22 120//24 
f 120//24 119//24 107//22 
f 108//8 98//8 110//8 
f 110//8 120//8 108//8 
f 110//23 109//23 121//25 
f 121//25 122//25 110//23 
f 109//23 111//23 123//25 
f 123//25 121//25 109//23 
f 111//23 112//23 124//25 
f 124//25 123//25 111//23 
f 112//23 113//23 125//25 
f 125//25 124//25 112//23 
f 113//23 114//23 126//25 
f 126//25 125//25 113//23 
f 114//4 115//4 127//4 
f 127//4 126//4 114//4 
f 115//24 116//24 128//26 
f 128//26 127//26 115//24 
f 116//24 117//24 129//26 
f 129//26 128//26 116//24 
f 117//24 118//24 130//26 
f 130//26 129//26 117//24 
f 118//24 119//24 131//26 
f 131//26 130//26 118//24 
f 119//24 120//24 132//26 
f 132//26 131//26 119//24 
f 120//8 110//8 122//8 
f 122//8 132//8 120//8 
f 122//25 121//25 133//27 
f 133//27 134//27 122//25 
f 121//25 123//25 135//27 
f 135//27 133//27 121//25 
f 123//25 124//25 136//27 
f 136//27 135//27 123//25 
f 124//25 125//25 137//27 
f 137//27 136//27 124//25 
f 125//25 126//25 138//27 
f 138//27 137//27 125//25 
f 126//4 127//4 139//4 
f 139//4 138//4 126//4 
f 127//26 128//26 140//28 
f 140//28 139//28 127//26 
f 128//26 129//26 141//28 
f 141//28 140//28 128//26 
f 129//26 130//26 142//28 
f 142//28 141//28 129//26 
f 130//26 131//26 143//28 
f 143//28 142//28 130//26 
f 131//26 132//26 144//28 
f 144//28 143//28 131//26 
f 132//8 122//8 134//8 
f 134//8 144//8 132//8 
f 134//27 133//27 145//29 
f 145//29 146//29 134//27 
f 133//27 135//27 147//29 
f 147//29 145//29 133//27 
f 135//27 136//27 148//29 
f 148//29 147//29 135//27 
f 136//27 137//27 149//29 
f 149//29 148//29 136//27 
f 137//27 138//27 150//29 
f 150//29 149//29 137//27 
f 138//4 139//4 151//4 
f 151//4 150//4 138//4 
f 139//28 140//28 152//30 
f 152//30 151//30 139//28 
f 140//28 141//28 153//30 
f 153//30 152//30 140//28 
f 141//28 142//28 154//30 
f 154//30 153//30 141//28 
f 142//28 143//28 155//30 
f 155//30 154//30 142//28 
f 143//28 144//28 156//30 
f 156//30 155//30 143//28 
f 144//8 134//8 146//8 
f 146//8 156//8 144//8 
f 146//29 145//29 157//31 
f 157//31 158//31 146//29 
f 145//29 147//29 159//31 
f 159//31 157//31 145//29 
f 147//29 148//29 160//31 
f 160//31 159//31 147//29 
f 148//29 149//29 161//31 
f 161//31 160//31 148//29 
f 149//29 150//29 162//31 
f 162//31 161//31 149//29 
f 150//4 151//4 163//4 
f 163//4 162//4 150//4 
f 151//30 152//30 164//32 
f 164//32 163//32 151//30 
f 152//30 153//30 165//32 
f 165//32 164//32 152//30 
f 153//30 154//30 166//32 
f 166//32 165//32 153//30 
f 154//30 155//30 167//32 
f 167//32 166//32 154//30 
f 155//30 156//30 168//32 
f 168//32 167//32 155//30 
f 156//8 146//8 158//8 
f 158//8 168//8 156//8 
f 158//31 157//31 169//33 
f 169//33 170//33 158//31 
f 157//31 159//31 171//33 
f 171//33 169//33 157//31 
f 159//31 160//31 172//33 
f 172//33 171//33 159//31 
f 160//31 161//31 173//33 
f 173//33 172//33 160//31 
f 161//31 162//31 174//33 
f 174//33 173//33 161//31 
f 162//4 163//4 175//4 
f 175//4 174//4 162//4 
f 163//32 164//32 176//34 
f 176//34 175//34 163//32 
f 164//32 165//32 177//34 
f 177//34 176//34 164//32 
f 165//32 166//32 178//34 
f 178//34 177//34 165//32 
f 166//32 167//32 179//34 
f 179//34 178//34 166//32 
f 167//32 168//32 180//34 
f 180//34 179//34 167//32 
f 168//8 158//8 170//8 
f 170//8 180//8 168//8 
f 170//33 169//33 181//35 
f 181//35 182//35 170//33 
f 169//33 171//33 183//35 
f 183//35 181//35 169//33 
f 171//33 172//33 184//35 
f 184//35 183//35 171//33 
f 172//33 173//33 185//35 
f 185//35 184//35 172//33 
f 173//33 174//33 186//35 
f 186//35 185//35 173//33 
f 174//4 175//4 187//4 
f 187//4 186//4 174//4 
f 175//34 176//34 188//36 
f 188//36 187//36 175//34 
f 176//34 177//34 189//36 
f 189//36 188//36 176//34 
f 177//34 178//34 190//36 
f 190//36 189//36 177//34 
f 178//34 179//34 191//36 
f 191//36 190//36 178//34 
f 179//34 180//34 192//36 
f 192//36 191//36 179//34 
f 180//8 170//8 182//8 
f 182//8 192//8 180//8 
f 182//35 181//35 193//37 
f 193//37 194//37 182//35 
f 181//35 183//35 195//37 
f 195//37 193//37 181//35 
f 183//35 184//35 196//37 
f 196//37 195//37 183//35 
f 184//35 185//35 197//37 
f 197//37 196//37 184//35 
f 185//35 186//35 198//37 
f 198//37 197//37 185//35 
f 186//4 187//4 199//4 
f 199//4 198//4 186//4 
f 187//36 188//36 200//38 
f 200//38 199//38 187//36 
f 188//36 189//36 201//38 
f 201//38 200//38 188//36 
f 189//36 190//36 202//38 
f 202//38 201//38 189//36 
f 190//36 191//36 203//38 
f 203//38 202//38 190//36 
f 191//36 192//36 204//38 
f 204//38 203//38 191//36 
f 192//8 182//8 194//8 
f 194//8 204//8 192//8 
f 194//37 193//37 205//39 
f 205//39 206//39 194//37 
f 193//37 195//37 207//39 
f 207//39 205//39 193//37 
f 195//37 196//37 208//39 
f 208//39 207//39 195//37 
f 196//37 197//37 209//39 
f 209//39 208//39 196//37 
f 197//37 198//37 210//39 
f 210//39 209//39 197//37 
f 198//4 199//4 211//4 
f 211//4 210//4 198//4 
f 199//38 200//38 212//40 
f 212//40 211//40 199//38 
f 200//38 201//38 213//40 
f 213//40 212//40 200//38 
f 201//38 202//38 214//40 
f 214//40 213//40 201//38 
f 202//38 203//38 215//40 
f 215//40 214//40 202//38 
f 203//38 204//38 216//40 
f 216//40 215//40 203//38 
f 204//8 194//8 206//8 
f 206//8 216//8 204//8 
f 206//39 205//39 2//2 
f 2//2 1//1 206//39 
f 205//39 207//39 5//2 
f 5//2 2//2 205//39 
f 207//39 208//39 7//2 
f 7//2 5//2 207//39 
f 208//39 209//39 9//2 
f 9//2 7//2 208//39 
f 209//39 210//39 11//2 
f 11//2 9//2 209//39 
f 210//4 211//4 13//4 
f 13//4 11//4 210//4 
f 211//40 212//40 15//6 
f 15//6 13//5 211//40 
f 212//40 213//40 17//5 
f 17//5 15//6 212//40 
f 213//40 214//40 19//5 
f 19//5 17//5 213//40 
f 214//40 215//40 21//5 
f 21//5 19//5 214//40 
f 215//40 216//40 23//5 
f 23//5 21//5 215//40 
f 216//8 206//8 1//8 
f 1//8 23//8 216//8 
# 432 faces

